<svg width="512" height="512" viewBox="0 0 512 512" fill="none" xmlns="http://www.w3.org/2000/svg">
  <!-- Latar Belakang Lingkaran Halus -->
  <circle cx="256" cy="256" r="240" fill="#F7F4F0"/>
  
  <!-- Simbol Buku Terbuka / Burung (Edukasi & Kebebasan) -->
  <path d="M256 360C256 360 200 320 120 320V160C200 160 256 200 256 200C256 200 312 160 392 160V320C312 320 256 360 256 360Z" 
        fill="#1E293B" />
        
  <!-- Aksen Lingkaran Matahari / AI (Inspirasi & Teknologi) -->
  <circle cx="256" cy="180" r="45" fill="#F59E0B" fill-opacity="0.9" />
  
  <!-- Detail Garis Modern di Sayap Kiri (Warna PPM/Absensi) -->
  <path d="M120 200C160 200 190 220 210 240" stroke="#10B981" stroke-width="12" stroke-linecap="round"/>
  
  <!-- Detail Garis Modern di Sayap Kanan (Warna Asesmen/Buku Induk) -->
  <path d="M392 200C352 200 322 220 302 240" stroke="#3B82F6" stroke-width="12" stroke-linecap="round"/>
  
  <!-- Titik Kilau (Simbol AI / Modernitas) -->
  <path d="M256 120V100M285 130L300 115M227 130L212 115" stroke="#F59E0B" stroke-width="8" stroke-linecap="round"/>
  
  <!-- Teks Inisial B G yang Halus di bawah (Opsional) -->
  <path d="M230 420H282" stroke="#1E293B" stroke-width="4" stroke-linecap="round" opacity="0.2"/>
</svg>
